<svg width="40" height="40" viewBox="0 0 40 40" fill="none" xmlns="http://www.w3.org/2000/svg">
<g clip-path="url(#clip0_494_4440)">
<path d="M31.6667 11.6667H8.33333C6.49238 11.6667 5 13.1591 5 15.0001V30.0001C5 31.841 6.49238 33.3334 8.33333 33.3334H31.6667C33.5076 33.3334 35 31.841 35 30.0001V15.0001C35 13.1591 33.5076 11.6667 31.6667 11.6667Z" stroke="#222B45" stroke-width="2" stroke-linecap="round" stroke-linejoin="round"/>
<path d="M13.3334 11.6667V8.33333C13.3334 7.44928 13.6846 6.60143 14.3097 5.97631C14.9348 5.35119 15.7827 5 16.6667 5H23.3334C24.2174 5 25.0653 5.35119 25.6904 5.97631C26.3155 6.60143 26.6667 7.44928 26.6667 8.33333V11.6667" stroke="#222B45" stroke-width="2" stroke-linecap="round" stroke-linejoin="round"/>
<path d="M20 20V20.0167" stroke="#222B45" stroke-width="2" stroke-linecap="round" stroke-linejoin="round"/>
<path d="M5 21.6667C9.65263 24.0112 14.79 25.2325 20 25.2325C25.21 25.2325 30.3474 24.0112 35 21.6667" stroke="#222B45" stroke-width="2" stroke-linecap="round" stroke-linejoin="round"/>
</g>
<defs>
<clipPath id="clip0_494_4440">
<rect width="40" height="40" fill="white"/>
</clipPath>
</defs>
</svg>
