<svg width="224" height="144" viewBox="0 0 224 144" fill="none" xmlns="http://www.w3.org/2000/svg">
<path fill-rule="evenodd" clip-rule="evenodd" d="M13.4141 12L17.7071 7.70701C18.0981 7.31601 18.0981 6.68401 17.7071 6.29301C17.3161 5.90201 16.6841 5.90201 16.2931 6.29301L12.0001 10.586L7.70713 6.29301C7.31613 5.90201 6.68413 5.90201 6.29313 6.29301C5.90213 6.68401 5.90213 7.31601 6.29313 7.70701L10.5861 12L6.29313 16.293C5.90213 16.684 5.90213 17.316 6.29313 17.707C6.48813 17.902 6.74413 18 7.00013 18C7.25613 18 7.51213 17.902 7.70713 17.707L12.0001 13.414L16.2931 17.707C16.4881 17.902 16.7441 18 17.0001 18C17.2561 18 17.5121 17.902 17.7071 17.707C18.0981 17.316 18.0981 16.684 17.7071 16.293L13.4141 12Z" fill="#E4E9F2"/>
<path fill-rule="evenodd" clip-rule="evenodd" d="M53.4141 12L57.7071 7.70701C58.0981 7.31601 58.0981 6.68401 57.7071 6.29301C57.3161 5.90201 56.6841 5.90201 56.2931 6.29301L52.0001 10.586L47.7071 6.29301C47.3161 5.90201 46.6841 5.90201 46.2931 6.29301C45.9021 6.68401 45.9021 7.31601 46.2931 7.70701L50.5861 12L46.2931 16.293C45.9021 16.684 45.9021 17.316 46.2931 17.707C46.4881 17.902 46.7441 18 47.0001 18C47.2561 18 47.5121 17.902 47.7071 17.707L52.0001 13.414L56.2931 17.707C56.4881 17.902 56.7441 18 57.0001 18C57.2561 18 57.5121 17.902 57.7071 17.707C58.0981 17.316 58.0981 16.684 57.7071 16.293L53.4141 12Z" fill="#E4E9F2"/>
<path fill-rule="evenodd" clip-rule="evenodd" d="M173.414 12L177.707 7.70701C178.098 7.31601 178.098 6.68401 177.707 6.29301C177.316 5.90201 176.684 5.90201 176.293 6.29301L172 10.586L167.707 6.29301C167.316 5.90201 166.684 5.90201 166.293 6.29301C165.902 6.68401 165.902 7.31601 166.293 7.70701L170.586 12L166.293 16.293C165.902 16.684 165.902 17.316 166.293 17.707C166.488 17.902 166.744 18 167 18C167.256 18 167.512 17.902 167.707 17.707L172 13.414L176.293 17.707C176.488 17.902 176.744 18 177 18C177.256 18 177.512 17.902 177.707 17.707C178.098 17.316 178.098 16.684 177.707 16.293L173.414 12Z" fill="#E4E9F2"/>
<path fill-rule="evenodd" clip-rule="evenodd" d="M53.4141 52L57.7071 47.707C58.0981 47.316 58.0981 46.684 57.7071 46.293C57.3161 45.902 56.6841 45.902 56.2931 46.293L52.0001 50.586L47.7071 46.293C47.3161 45.902 46.6841 45.902 46.2931 46.293C45.9021 46.684 45.9021 47.316 46.2931 47.707L50.5861 52L46.2931 56.293C45.9021 56.684 45.9021 57.316 46.2931 57.707C46.4881 57.902 46.7441 58 47.0001 58C47.2561 58 47.5121 57.902 47.7071 57.707L52.0001 53.414L56.2931 57.707C56.4881 57.902 56.7441 58 57.0001 58C57.2561 58 57.5121 57.902 57.7071 57.707C58.0981 57.316 58.0981 56.684 57.7071 56.293L53.4141 52Z" fill="#E4E9F2"/>
<path fill-rule="evenodd" clip-rule="evenodd" d="M93.4141 52L97.7071 47.707C98.0981 47.316 98.0981 46.684 97.7071 46.293C97.3161 45.902 96.6841 45.902 96.2931 46.293L92.0001 50.586L87.7071 46.293C87.3161 45.902 86.6841 45.902 86.2931 46.293C85.9021 46.684 85.9021 47.316 86.2931 47.707L90.5861 52L86.2931 56.293C85.9021 56.684 85.9021 57.316 86.2931 57.707C86.4881 57.902 86.7441 58 87.0001 58C87.2561 58 87.5121 57.902 87.7071 57.707L92.0001 53.414L96.2931 57.707C96.4881 57.902 96.7441 58 97.0001 58C97.2561 58 97.5121 57.902 97.7071 57.707C98.0981 57.316 98.0981 56.684 97.7071 56.293L93.4141 52Z" fill="#FFEA88"/>
<path fill-rule="evenodd" clip-rule="evenodd" d="M133.414 52L137.707 47.707C138.098 47.316 138.098 46.684 137.707 46.293C137.316 45.902 136.684 45.902 136.293 46.293L132 50.586L127.707 46.293C127.316 45.902 126.684 45.902 126.293 46.293C125.902 46.684 125.902 47.316 126.293 47.707L130.586 52L126.293 56.293C125.902 56.684 125.902 57.316 126.293 57.707C126.488 57.902 126.744 58 127 58C127.256 58 127.512 57.902 127.707 57.707L132 53.414L136.293 57.707C136.488 57.902 136.744 58 137 58C137.256 58 137.512 57.902 137.707 57.707C138.098 57.316 138.098 56.684 137.707 56.293L133.414 52Z" fill="#E4E9F2"/>
<path fill-rule="evenodd" clip-rule="evenodd" d="M173.414 52L177.707 47.707C178.098 47.316 178.098 46.684 177.707 46.293C177.316 45.902 176.684 45.902 176.293 46.293L172 50.586L167.707 46.293C167.316 45.902 166.684 45.902 166.293 46.293C165.902 46.684 165.902 47.316 166.293 47.707L170.586 52L166.293 56.293C165.902 56.684 165.902 57.316 166.293 57.707C166.488 57.902 166.744 58 167 58C167.256 58 167.512 57.902 167.707 57.707L172 53.414L176.293 57.707C176.488 57.902 176.744 58 177 58C177.256 58 177.512 57.902 177.707 57.707C178.098 57.316 178.098 56.684 177.707 56.293L173.414 52Z" fill="#E4E9F2"/>
<path fill-rule="evenodd" clip-rule="evenodd" d="M213.414 52L217.707 47.707C218.098 47.316 218.098 46.684 217.707 46.293C217.316 45.902 216.684 45.902 216.293 46.293L212 50.586L207.707 46.293C207.316 45.902 206.684 45.902 206.293 46.293C205.902 46.684 205.902 47.316 206.293 47.707L210.586 52L206.293 56.293C205.902 56.684 205.902 57.316 206.293 57.707C206.488 57.902 206.744 58 207 58C207.256 58 207.512 57.902 207.707 57.707L212 53.414L216.293 57.707C216.488 57.902 216.744 58 217 58C217.256 58 217.512 57.902 217.707 57.707C218.098 57.316 218.098 56.684 217.707 56.293L213.414 52Z" fill="#E4E9F2"/>
<path fill-rule="evenodd" clip-rule="evenodd" d="M13.4141 92L17.7071 87.707C18.0981 87.316 18.0981 86.684 17.7071 86.293C17.3161 85.902 16.6841 85.902 16.2931 86.293L12.0001 90.586L7.70713 86.293C7.31613 85.902 6.68413 85.902 6.29313 86.293C5.90213 86.684 5.90213 87.316 6.29313 87.707L10.5861 92L6.29313 96.293C5.90213 96.684 5.90213 97.316 6.29313 97.707C6.48813 97.902 6.74413 98 7.00013 98C7.25613 98 7.51213 97.902 7.70713 97.707L12.0001 93.414L16.2931 97.707C16.4881 97.902 16.7441 98 17.0001 98C17.2561 98 17.5121 97.902 17.7071 97.707C18.0981 97.316 18.0981 96.684 17.7071 96.293L13.4141 92Z" fill="#E4E9F2"/>
<path fill-rule="evenodd" clip-rule="evenodd" d="M53.4141 92L57.7071 87.707C58.0981 87.316 58.0981 86.684 57.7071 86.293C57.3161 85.902 56.6841 85.902 56.2931 86.293L52.0001 90.586L47.7071 86.293C47.3161 85.902 46.6841 85.902 46.2931 86.293C45.9021 86.684 45.9021 87.316 46.2931 87.707L50.5861 92L46.2931 96.293C45.9021 96.684 45.9021 97.316 46.2931 97.707C46.4881 97.902 46.7441 98 47.0001 98C47.2561 98 47.5121 97.902 47.7071 97.707L52.0001 93.414L56.2931 97.707C56.4881 97.902 56.7441 98 57.0001 98C57.2561 98 57.5121 97.902 57.7071 97.707C58.0981 97.316 58.0981 96.684 57.7071 96.293L53.4141 92Z" fill="#FFEA88"/>
<path fill-rule="evenodd" clip-rule="evenodd" d="M93.4141 92L97.7071 87.707C98.0981 87.316 98.0981 86.684 97.7071 86.293C97.3161 85.902 96.6841 85.902 96.2931 86.293L92.0001 90.586L87.7071 86.293C87.3161 85.902 86.6841 85.902 86.2931 86.293C85.9021 86.684 85.9021 87.316 86.2931 87.707L90.5861 92L86.2931 96.293C85.9021 96.684 85.9021 97.316 86.2931 97.707C86.4881 97.902 86.7441 98 87.0001 98C87.2561 98 87.5121 97.902 87.7071 97.707L92.0001 93.414L96.2931 97.707C96.4881 97.902 96.7441 98 97.0001 98C97.2561 98 97.5121 97.902 97.7071 97.707C98.0981 97.316 98.0981 96.684 97.7071 96.293L93.4141 92Z" fill="#E4E9F2"/>
<path fill-rule="evenodd" clip-rule="evenodd" d="M133.414 92L137.707 87.707C138.098 87.316 138.098 86.684 137.707 86.293C137.316 85.902 136.684 85.902 136.293 86.293L132 90.586L127.707 86.293C127.316 85.902 126.684 85.902 126.293 86.293C125.902 86.684 125.902 87.316 126.293 87.707L130.586 92L126.293 96.293C125.902 96.684 125.902 97.316 126.293 97.707C126.488 97.902 126.744 98 127 98C127.256 98 127.512 97.902 127.707 97.707L132 93.414L136.293 97.707C136.488 97.902 136.744 98 137 98C137.256 98 137.512 97.902 137.707 97.707C138.098 97.316 138.098 96.684 137.707 96.293L133.414 92Z" fill="#E4E9F2"/>
<path fill-rule="evenodd" clip-rule="evenodd" d="M13.4141 132L17.7071 127.707C18.0981 127.316 18.0981 126.684 17.7071 126.293C17.3161 125.902 16.6841 125.902 16.2931 126.293L12.0001 130.586L7.70713 126.293C7.31613 125.902 6.68413 125.902 6.29313 126.293C5.90213 126.684 5.90213 127.316 6.29313 127.707L10.5861 132L6.29313 136.293C5.90213 136.684 5.90213 137.316 6.29313 137.707C6.48813 137.902 6.74413 138 7.00013 138C7.25613 138 7.51213 137.902 7.70713 137.707L12.0001 133.414L16.2931 137.707C16.4881 137.902 16.7441 138 17.0001 138C17.2561 138 17.5121 137.902 17.7071 137.707C18.0981 137.316 18.0981 136.684 17.7071 136.293L13.4141 132Z" fill="#E4E9F2"/>
<path fill-rule="evenodd" clip-rule="evenodd" d="M53.4141 132L57.7071 127.707C58.0981 127.316 58.0981 126.684 57.7071 126.293C57.3161 125.902 56.6841 125.902 56.2931 126.293L52.0001 130.586L47.7071 126.293C47.3161 125.902 46.6841 125.902 46.2931 126.293C45.9021 126.684 45.9021 127.316 46.2931 127.707L50.5861 132L46.2931 136.293C45.9021 136.684 45.9021 137.316 46.2931 137.707C46.4881 137.902 46.7441 138 47.0001 138C47.2561 138 47.5121 137.902 47.7071 137.707L52.0001 133.414L56.2931 137.707C56.4881 137.902 56.7441 138 57.0001 138C57.2561 138 57.5121 137.902 57.7071 137.707C58.0981 137.316 58.0981 136.684 57.7071 136.293L53.4141 132Z" fill="#FFEA88"/>
<path fill-rule="evenodd" clip-rule="evenodd" d="M133.414 132L137.707 127.707C138.098 127.316 138.098 126.684 137.707 126.293C137.316 125.902 136.684 125.902 136.293 126.293L132 130.586L127.707 126.293C127.316 125.902 126.684 125.902 126.293 126.293C125.902 126.684 125.902 127.316 126.293 127.707L130.586 132L126.293 136.293C125.902 136.684 125.902 137.316 126.293 137.707C126.488 137.902 126.744 138 127 138C127.256 138 127.512 137.902 127.707 137.707L132 133.414L136.293 137.707C136.488 137.902 136.744 138 137 138C137.256 138 137.512 137.902 137.707 137.707C138.098 137.316 138.098 136.684 137.707 136.293L133.414 132Z" fill="#FFEA88"/>
<path fill-rule="evenodd" clip-rule="evenodd" d="M173.414 132L177.707 127.707C178.098 127.316 178.098 126.684 177.707 126.293C177.316 125.902 176.684 125.902 176.293 126.293L172 130.586L167.707 126.293C167.316 125.902 166.684 125.902 166.293 126.293C165.902 126.684 165.902 127.316 166.293 127.707L170.586 132L166.293 136.293C165.902 136.684 165.902 137.316 166.293 137.707C166.488 137.902 166.744 138 167 138C167.256 138 167.512 137.902 167.707 137.707L172 133.414L176.293 137.707C176.488 137.902 176.744 138 177 138C177.256 138 177.512 137.902 177.707 137.707C178.098 137.316 178.098 136.684 177.707 136.293L173.414 132Z" fill="#E4E9F2"/>
</svg>
