<svg width="16" height="14" viewBox="0 0 16 14" fill="none" xmlns="http://www.w3.org/2000/svg">
<path fill-rule="evenodd" clip-rule="evenodd" d="M15 6.00003H3.135L6.768 1.64003C7.122 1.21603 7.064 0.585031 6.64 0.232031C6.215 -0.121969 5.585 -0.0639688 5.232 0.360031L0.232 6.36003C0.193 6.40703 0.173 6.46203 0.144 6.51403C0.12 6.55603 0.091 6.59203 0.073 6.63803C0.028 6.75303 0.001 6.87403 0.001 6.99603C0.001 6.99703 0 6.99903 0 7.00003C0 7.00103 0.001 7.00303 0.001 7.00403C0.001 7.12603 0.028 7.24703 0.073 7.36203C0.091 7.40803 0.12 7.44403 0.144 7.48603C0.173 7.53803 0.193 7.59303 0.232 7.64003L5.232 13.64C5.43 13.877 5.714 14 6 14C6.226 14 6.453 13.924 6.64 13.768C7.064 13.415 7.122 12.784 6.768 12.36L3.135 8.00003H15C15.552 8.00003 16 7.55203 16 7.00003C16 6.44803 15.552 6.00003 15 6.00003Z" fill="#2E3A59"/>
</svg>
