<svg width="17" height="17" viewBox="0 0 17 17" fill="none" xmlns="http://www.w3.org/2000/svg">
<path fill-rule="evenodd" clip-rule="evenodd" d="M11.0434 9.95631H5.92309L4.82282 5.93611H13.0598L11.0434 9.95631ZM14.2031 5.23123C13.9564 4.83323 13.529 4.59604 13.0598 4.59604H4.45654L4.04183 3.07975C3.96185 2.78829 3.69636 2.58594 3.39322 2.58594H2.04896C1.67727 2.58594 1.37683 2.88611 1.37683 3.25597C1.37683 3.62583 1.67727 3.92601 2.04896 3.92601H2.87972L4.76101 10.8026C4.841 11.094 5.10649 11.2964 5.40962 11.2964H11.4588C11.7135 11.2964 11.9461 11.153 12.0604 10.9258L14.2623 6.53512C14.4726 6.11635 14.4498 5.62923 14.2031 5.23123ZM5.07373 12.6364C4.51721 12.6364 4.06554 13.086 4.06554 13.6415C4.06554 14.1969 4.51721 14.6465 5.07373 14.6465C5.63026 14.6465 6.08193 14.1969 6.08193 13.6415C6.08193 13.086 5.63026 12.6364 5.07373 12.6364ZM10.7868 13.6415C10.7868 13.086 11.2385 12.6364 11.795 12.6364C12.3516 12.6364 12.8032 13.086 12.8032 13.6415C12.8032 14.1969 12.3516 14.6465 11.795 14.6465C11.2385 14.6465 10.7868 14.1969 10.7868 13.6415Z" fill="#FFF2AF"/>
</svg>
