<svg width="40" height="40" viewBox="0 0 40 40" fill="none" xmlns="http://www.w3.org/2000/svg">
<g clip-path="url(#clip0_494_4470)">
<path d="M31.6667 14.5166L22.7783 7.60327C21.9983 6.99645 21.0383 6.66699 20.05 6.66699C19.0617 6.66699 18.1017 6.99645 17.3217 7.60327L8.43167 14.5166C7.89741 14.9321 7.46516 15.4642 7.16793 16.0722C6.8707 16.6802 6.71636 17.3481 6.71668 18.0249V30.0249C6.71668 30.909 7.06786 31.7568 7.69299 32.382C8.31811 33.0071 9.16595 33.3583 10.05 33.3583H30.05C30.9341 33.3583 31.7819 33.0071 32.407 32.382C33.0322 31.7568 33.3833 30.909 33.3833 30.0249V18.0249C33.3833 16.6533 32.75 15.3583 31.6667 14.5166Z" stroke="#222B45" stroke-width="2" stroke-linecap="round" stroke-linejoin="round"/>
<path d="M26.6667 25C22.9834 27.2217 17.0134 27.2217 13.3334 25" stroke="#222B45" stroke-width="2" stroke-linecap="round" stroke-linejoin="round"/>
</g>
<defs>
<clipPath id="clip0_494_4470">
<rect width="40" height="40" fill="white"/>
</clipPath>
</defs>
</svg>
