<svg width="116" height="36" viewBox="0 0 116 36" fill="none" xmlns="http://www.w3.org/2000/svg">
<path d="M0 12.2322V0.607178H2.56451V12.0513C2.56451 13.1032 3.07682 13.6693 4.10292 13.6693C4.45236 13.6693 4.82104 13.5686 5.02685 13.4665L5.14975 15.4886C4.65669 15.671 4.12365 15.7512 3.61134 15.7512C1.3326 15.7498 0 14.4761 0 12.2322Z" fill="#222B45"/>
<path d="M6.54449 1.51587C6.54449 0.666749 7.24189 0 8.18655 0C9.13122 0 9.82861 0.627356 9.82861 1.45605C9.82861 2.34602 9.15195 3.03319 8.18655 3.03319C7.24189 3.03319 6.54449 2.36644 6.54449 1.51587ZM6.89393 4.81167H9.45844V15.608H6.89393V4.81167Z" fill="#222B45"/>
<path d="M23.6151 9.42185V15.6079H21.0506V9.74428C21.0506 7.82283 20.0867 6.89347 18.4447 6.89347C16.619 6.89347 15.3871 7.98477 15.3871 10.1484V15.6079H12.8226V4.81153H15.2642V6.2063C16.1052 5.21566 17.4393 4.69043 19.0399 4.69043C21.6666 4.69043 23.6151 6.1669 23.6151 9.42185Z" fill="#222B45"/>
<path d="M31.3501 10.979L29.4415 12.7574V15.6082H26.877V0.607178H29.4415V9.66442L34.7556 4.81191H37.8339L33.2587 9.34054L38.2648 15.6082H35.1465L31.3501 10.979Z" fill="#222B45"/>
<path d="M11.6336 26.6802C11.6336 30.0358 9.2734 32.2198 6.07368 32.2198C4.6789 32.2198 3.44699 31.7544 2.56451 30.7638V36H0V21.282H2.44162V22.6972C3.30336 21.6657 4.57525 21.1609 6.07368 21.1609C9.2734 21.1609 11.6336 23.345 11.6336 26.6802ZM9.02761 26.6802C9.02761 24.6186 7.63282 23.3041 5.78495 23.3041C3.93709 23.3041 2.52305 24.6186 2.52305 26.6802C2.52305 28.7431 3.93857 30.0562 5.78495 30.0562C7.63134 30.0562 9.02761 28.7431 9.02761 26.6802Z" fill="#222B45"/>
<path d="M24.7849 21.282V32.0783H22.3432V30.6835C21.4815 31.715 20.2096 32.2198 18.7112 32.2198C15.51 32.2198 13.1705 30.0358 13.1705 26.6802C13.1705 23.3245 15.51 21.1609 18.7112 21.1609C20.106 21.1609 21.3379 21.6263 22.2203 22.5965V21.282H24.7849ZM22.2618 26.6802C22.2618 24.6186 20.867 23.3041 18.9999 23.3041C17.1535 23.3041 15.7573 24.6186 15.7573 26.6802C15.7573 28.7431 17.152 30.0562 18.9999 30.0562C20.8655 30.0577 22.2618 28.7431 22.2618 26.6802Z" fill="#222B45"/>
<path d="M34.4906 21.1609V23.5667C34.2655 23.5259 34.0805 23.5054 33.8954 23.5054C31.9453 23.5054 30.7149 24.6376 30.7149 26.8421V32.0783H28.1504V21.282H30.592V22.8591C31.3309 21.727 32.6635 21.1609 34.4906 21.1609Z" fill="#222B45"/>
<path d="M42.8208 31.4932C42.2048 31.979 41.2824 32.2212 40.3585 32.2212C37.9583 32.2212 36.5828 30.968 36.5828 28.5826V18.8979H39.1473V21.3651H42.0819V23.3872H39.1473V28.5227C39.1473 29.5746 39.701 30.1407 40.665 30.1407C41.198 30.1407 41.7118 29.9992 42.1012 29.6957L42.8208 31.4932Z" fill="#222B45"/>
<path d="M55.7263 25.8923V32.0783H53.1618V26.2147C53.1618 24.2933 52.1979 23.3639 50.5558 23.3639C48.7301 23.3639 47.4982 24.4552 47.4982 26.6189V32.0783H44.9337V21.282H47.3753V22.6768C48.2163 21.6861 49.5504 21.1609 51.151 21.1609C53.7777 21.1609 55.7263 22.6374 55.7263 25.8923Z" fill="#222B45"/>
<path d="M67.2783 28.9051L68.6331 30.4618C67.6692 31.6144 66.1293 32.2213 64.2415 32.2213C60.568 32.2213 58.1885 29.8957 58.1885 26.6816C58.1885 23.4675 60.568 21.1624 63.8313 21.1624C66.8889 21.1624 69.3513 23.1845 69.372 26.5605L60.9796 28.1785C61.5126 29.4113 62.7031 30.0795 64.3037 30.0795C65.5341 30.0781 66.4773 29.6929 67.2783 28.9051ZM60.6701 26.5386V26.5591L66.8667 25.3861C66.5173 24.0715 65.3683 23.183 63.8299 23.183C61.9642 23.183 60.6701 24.4771 60.6701 26.5386Z" fill="#222B45"/>
<path d="M78.1732 21.1609V23.5667C77.9481 23.5259 77.763 23.5054 77.5779 23.5054C75.6279 23.5054 74.3975 24.6376 74.3975 26.8421V32.0783H71.8329V21.282H74.2746V22.8591C75.0134 21.727 76.3475 21.1609 78.1732 21.1609Z" fill="#222B45"/>
<path d="M79.137 31.0074L80.1217 29.086C81.0856 29.7133 82.5633 30.1569 83.9373 30.1569C85.5587 30.1569 86.2353 29.7119 86.2353 28.9634C86.2353 26.9004 79.4643 28.8423 79.4643 24.5355C79.4643 22.4929 81.3314 21.1594 84.2868 21.1594C85.7437 21.1594 87.405 21.5037 88.3897 22.0902L87.4051 24.0102C86.3582 23.4033 85.3129 23.202 84.266 23.202C82.7069 23.202 81.9681 23.7068 81.9681 24.4144C81.9681 26.5984 88.7391 24.6566 88.7391 28.8832C88.7391 30.9053 86.8513 32.2198 83.773 32.2198C81.9488 32.2198 80.1217 31.6946 79.137 31.0074Z" fill="#222B45"/>
<path d="M54.4175 15.5875H61.0405C64.0892 15.5875 66.5589 13.1525 66.5589 10.1499H64.1306C64.1306 11.8292 62.7447 13.1948 61.0405 13.1948H54.4175C52.7132 13.1948 51.3273 11.8292 51.3273 10.1499H48.899C48.8976 13.1525 51.3688 15.5875 54.4175 15.5875Z" fill="#FCBA00"/>
<path d="M54.4174 7.10364C56.1216 7.10364 57.5075 8.46923 57.5075 10.1485C57.5075 11.8278 56.1216 13.1934 54.4174 13.1934H47.7944C46.0901 13.1934 44.7042 11.8278 44.7042 10.1485C44.7042 8.46923 46.0901 7.10364 47.7944 7.10364H54.4174ZM54.4174 4.71094H47.7944C44.7457 4.71094 42.2759 7.14595 42.2759 10.1485C42.2759 13.1525 44.7472 15.5861 47.7944 15.5861H54.4174C57.4661 15.5861 59.9358 13.151 59.9358 10.1485C59.9358 7.14595 57.4646 4.71094 54.4174 4.71094Z" fill="#222B45"/>
<path d="M54.4175 7.10364H61.0405C62.7447 7.10364 64.1306 8.46923 64.1306 10.1485H66.5589C66.5589 7.14449 64.0877 4.71094 61.0405 4.71094H54.4175C51.3688 4.71094 48.899 7.14595 48.899 10.1485H51.3273C51.3259 8.47069 52.7132 7.10364 54.4175 7.10364Z" fill="#FCBA00"/>
</svg>
