<svg width="20" height="20" viewBox="0 0 20 20" fill="none" xmlns="http://www.w3.org/2000/svg">
<path fill-rule="evenodd" clip-rule="evenodd" d="M9.99988 11.2499C9.31071 11.2499 8.74988 10.6891 8.74988 9.99994C8.74988 9.31077 9.31071 8.74994 9.99988 8.74994C10.689 8.74994 11.2499 9.31077 11.2499 9.99994C11.2499 10.6891 10.689 11.2499 9.99988 11.2499ZM9.99988 7.08327C8.39155 7.08327 7.08321 8.3916 7.08321 9.99994C7.08321 11.6083 8.39155 12.9166 9.99988 12.9166C11.6082 12.9166 12.9165 11.6083 12.9165 9.99994C12.9165 8.3916 11.6082 7.08327 9.99988 7.08327ZM10.183 14.1646C6.59463 14.2479 4.2538 11.1788 3.47713 9.99627C4.33213 8.65877 6.48546 5.92044 9.81713 5.83544C13.3913 5.7446 15.7455 8.82127 16.5221 10.0038C15.668 11.3413 13.5138 14.0796 10.183 14.1646ZM18.223 9.58544C17.6913 8.65877 14.7546 4.01377 9.77463 4.1696C5.16796 4.28627 2.4888 8.3446 1.77713 9.58544C1.62963 9.8421 1.62963 10.1579 1.77713 10.4146C2.3013 11.3288 5.13463 15.8329 10.0205 15.8329C10.0888 15.8329 10.1571 15.8321 10.2255 15.8304C14.8313 15.7129 17.5113 11.6554 18.223 10.4146C18.3696 10.1579 18.3696 9.8421 18.223 9.58544Z" fill="#8F9BB3"/>
</svg>
